<svg width="600" height="639" viewBox="0 0 600 639" fill="none" xmlns="http://www.w3.org/2000/svg">
<path fill-rule="evenodd" clip-rule="evenodd" d="M300 0H299.5H245C109.69 0 0 109.69 0 245V355C0 490.31 109.69 600 245 600H355C490.31 600 600 490.31 600 355V314H599.931C599.977 313.172 600 312.339 600 311.5C600 286.923 580.077 267 555.5 267C530.923 267 511 286.923 511 311.5C511 312.339 511.023 313.172 511.069 314H511V353C511 440.261 440.261 511 353 511H247C159.739 511 89 440.261 89 353V247C89 159.739 159.739 89 247 89H299.5H300V88.9972C324.346 88.7292 344 68.9098 344 44.5C344 20.0902 324.346 0.270785 300 0.0027511V0Z" fill="white"/>
<rect x="285" y="282" width="213" height="84" rx="42" fill="#2E30CA"/>
<rect x="516" y="639" width="103" height="84" rx="42" transform="rotate(-90 516 639)" fill="#2E30CA"/>
</svg>
