<svg width="2273" height="639" viewBox="0 0 2273 639" fill="none" xmlns="http://www.w3.org/2000/svg">
<path fill-rule="evenodd" clip-rule="evenodd" d="M300 0H299.5H245C109.69 0 0 109.69 0 245V355C0 490.31 109.69 600 245 600H355C490.31 600 600 490.31 600 355V314H599.931C599.977 313.172 600 312.339 600 311.5C600 286.923 580.077 267 555.5 267C530.923 267 511 286.923 511 311.5C511 312.339 511.023 313.172 511.069 314H511V353C511 440.261 440.261 511 353 511H247C159.739 511 89 440.261 89 353V247C89 159.739 159.739 89 247 89H299.5H300V88.9972C324.346 88.7292 344 68.9098 344 44.5C344 20.0902 324.346 0.270785 300 0.0027511V0Z" fill="#363636"/>
<rect x="285" y="282" width="213" height="84" rx="42" fill="#2E30CA"/>
<rect x="516" y="639" width="103" height="84" rx="42" transform="rotate(-90 516 639)" fill="#2E30CA"/>
<path d="M802.25 270.5C788.583 270.5 776 268.333 764.5 264C753.167 259.5 743.25 253.25 734.75 245.25C726.25 237.083 719.667 227.5 715 216.5C710.333 205.5 708 193.5 708 180.5C708 167.5 710.333 155.5 715 144.5C719.667 133.5 726.25 124 734.75 116C743.417 107.833 753.5 101.583 765 97.25C776.5 92.75 789.083 90.5 802.75 90.5C817.583 90.5 830.917 92.9167 842.75 97.75C854.75 102.583 864.833 109.667 873 119L852.5 139C845.667 132.167 838.25 127.167 830.25 124C822.417 120.667 813.75 119 804.25 119C795.083 119 786.583 120.5 778.75 123.5C770.917 126.5 764.167 130.75 758.5 136.25C752.833 141.75 748.417 148.25 745.25 155.75C742.25 163.25 740.75 171.5 740.75 180.5C740.75 189.333 742.25 197.5 745.25 205C748.417 212.5 752.833 219.083 758.5 224.75C764.167 230.25 770.833 234.5 778.5 237.5C786.167 240.5 794.667 242 804 242C812.667 242 821 240.667 829 238C837.167 235.167 844.917 230.5 852.25 224L870.75 248.25C861.583 255.583 850.917 261.167 838.75 265C826.75 268.667 814.583 270.5 802.25 270.5ZM870.75 248.25L840 244V178.5H870.75V248.25ZM913.615 268V93H946.115V268H913.615ZM980.199 268V246.25L1093.2 108.25L1096.95 120.5H981.949V93H1126.2V114.75L1013.2 252.75L1009.2 240.5H1129.45V268H980.199ZM1159.22 268V93H1185.97L1262.47 220.75H1248.47L1323.72 93H1350.47L1350.72 268H1319.97L1319.72 141.25H1326.22L1262.22 248H1247.72L1182.72 141.25H1190.22V268H1159.22ZM1479.99 270.5C1466.32 270.5 1453.74 268.25 1442.24 263.75C1430.74 259.25 1420.74 253 1412.24 245C1403.74 236.833 1397.16 227.333 1392.49 216.5C1387.82 205.5 1385.49 193.5 1385.49 180.5C1385.49 167.5 1387.82 155.583 1392.49 144.75C1397.16 133.75 1403.74 124.25 1412.24 116.25C1420.74 108.083 1430.74 101.75 1442.24 97.25C1453.74 92.75 1466.24 90.5 1479.74 90.5C1493.41 90.5 1505.91 92.75 1517.24 97.25C1528.74 101.75 1538.74 108.083 1547.24 116.25C1555.74 124.25 1562.32 133.75 1566.99 144.75C1571.66 155.583 1573.99 167.5 1573.99 180.5C1573.99 193.5 1571.66 205.5 1566.99 216.5C1562.32 227.5 1555.74 237 1547.24 245C1538.74 253 1528.74 259.25 1517.24 263.75C1505.91 268.25 1493.49 270.5 1479.99 270.5ZM1479.74 242C1488.57 242 1496.74 240.5 1504.24 237.5C1511.74 234.5 1518.24 230.25 1523.74 224.75C1529.24 219.083 1533.49 212.583 1536.49 205.25C1539.66 197.75 1541.24 189.5 1541.24 180.5C1541.24 171.5 1539.66 163.333 1536.49 156C1533.49 148.5 1529.24 142 1523.74 136.5C1518.24 130.833 1511.74 126.5 1504.24 123.5C1496.74 120.5 1488.57 119 1479.74 119C1470.91 119 1462.74 120.5 1455.24 123.5C1447.91 126.5 1441.41 130.833 1435.74 136.5C1430.24 142 1425.91 148.5 1422.74 156C1419.74 163.333 1418.24 171.5 1418.24 180.5C1418.24 189.333 1419.74 197.5 1422.74 205C1425.91 212.5 1430.24 219.083 1435.74 224.75C1441.24 230.25 1447.74 234.5 1455.24 237.5C1462.74 240.5 1470.91 242 1479.74 242Z" fill="#363636"/>
<path d="M1648.94 268V104.5H1585.94V93H1724.69V104.5H1661.69V268H1648.94ZM1756.31 268V93H1873.31V104.5H1769.06V256.5H1877.06V268H1756.31ZM1767.56 184.75V173.5H1862.31V184.75H1767.56ZM1996.81 269.25C1983.81 269.25 1971.73 267.083 1960.56 262.75C1949.56 258.25 1939.98 252 1931.81 244C1923.65 236 1917.31 226.667 1912.81 216C1908.31 205.167 1906.06 193.333 1906.06 180.5C1906.06 167.667 1908.31 155.917 1912.81 145.25C1917.31 134.417 1923.65 125 1931.81 117C1940.15 109 1949.81 102.833 1960.81 98.5C1971.81 94 1983.81 91.75 1996.81 91.75C2009.15 91.75 2020.65 93.75 2031.31 97.75C2042.15 101.75 2051.4 107.833 2059.06 116L2051.06 124.25C2043.56 116.917 2035.23 111.667 2026.06 108.5C2017.06 105.167 2007.48 103.5 1997.31 103.5C1986.15 103.5 1975.73 105.417 1966.06 109.25C1956.56 113.083 1948.23 118.5 1941.06 125.5C1934.06 132.5 1928.56 140.667 1924.56 150C1920.73 159.333 1918.81 169.5 1918.81 180.5C1918.81 191.5 1920.73 201.667 1924.56 211C1928.56 220.333 1934.06 228.5 1941.06 235.5C1948.23 242.5 1956.56 247.917 1966.06 251.75C1975.73 255.583 1986.15 257.5 1997.31 257.5C2007.48 257.5 2017.06 255.917 2026.06 252.75C2035.23 249.417 2043.56 244 2051.06 236.5L2059.06 244.75C2051.4 252.917 2042.15 259.083 2031.31 263.25C2020.65 267.25 2009.15 269.25 1996.81 269.25ZM2229.08 268V93H2241.83V268H2229.08ZM2099.33 268V93H2112.08V268H2099.33ZM2110.58 184.75V173.5H2230.58V184.75H2110.58Z" fill="#2E30CA"/>
<path d="M751.472 428.576C746.48 428.576 741.68 427.776 737.072 426.176C732.528 424.512 729.008 422.4 726.512 419.84L729.296 414.368C731.664 416.672 734.832 418.624 738.8 420.224C742.832 421.76 747.056 422.528 751.472 422.528C755.696 422.528 759.12 422.016 761.744 420.992C764.432 419.904 766.384 418.464 767.6 416.672C768.88 414.88 769.52 412.896 769.52 410.72C769.52 408.096 768.752 405.984 767.216 404.384C765.744 402.784 763.792 401.536 761.36 400.64C758.928 399.68 756.24 398.848 753.296 398.144C750.352 397.44 747.408 396.704 744.464 395.936C741.52 395.104 738.8 394.016 736.304 392.672C733.872 391.328 731.888 389.568 730.352 387.392C728.88 385.152 728.144 382.24 728.144 378.656C728.144 375.328 729.008 372.288 730.736 369.536C732.528 366.72 735.248 364.48 738.896 362.816C742.544 361.088 747.216 360.224 752.912 360.224C756.688 360.224 760.432 360.768 764.144 361.856C767.856 362.88 771.056 364.32 773.744 366.176L771.344 371.84C768.464 369.92 765.392 368.512 762.128 367.616C758.928 366.72 755.824 366.272 752.816 366.272C748.784 366.272 745.456 366.816 742.832 367.904C740.208 368.992 738.256 370.464 736.976 372.32C735.76 374.112 735.152 376.16 735.152 378.464C735.152 381.088 735.888 383.2 737.36 384.8C738.896 386.4 740.88 387.648 743.312 388.544C745.808 389.44 748.528 390.24 751.472 390.944C754.416 391.648 757.328 392.416 760.208 393.248C763.152 394.08 765.84 395.168 768.272 396.512C770.768 397.792 772.752 399.52 774.224 401.696C775.76 403.872 776.528 406.72 776.528 410.24C776.528 413.504 775.632 416.544 773.84 419.36C772.048 422.112 769.296 424.352 765.584 426.08C761.936 427.744 757.232 428.576 751.472 428.576ZM817.831 428.48C812.967 428.48 808.583 427.392 804.679 425.216C800.839 422.976 797.799 419.936 795.559 416.096C793.319 412.192 792.199 407.744 792.199 402.752C792.199 397.696 793.319 393.248 795.559 389.408C797.799 385.568 800.839 382.56 804.679 380.384C808.519 378.208 812.903 377.12 817.831 377.12C822.823 377.12 827.239 378.208 831.079 380.384C834.983 382.56 838.023 385.568 840.199 389.408C842.439 393.248 843.559 397.696 843.559 402.752C843.559 407.744 842.439 412.192 840.199 416.096C838.023 419.936 834.983 422.976 831.079 425.216C827.175 427.392 822.759 428.48 817.831 428.48ZM817.831 422.432C821.479 422.432 824.711 421.632 827.527 420.032C830.343 418.368 832.551 416.064 834.151 413.12C835.815 410.112 836.647 406.656 836.647 402.752C836.647 398.784 835.815 395.328 834.151 392.384C832.551 389.44 830.343 387.168 827.527 385.568C824.711 383.904 821.511 383.072 817.927 383.072C814.343 383.072 811.143 383.904 808.327 385.568C805.511 387.168 803.271 389.44 801.607 392.384C799.943 395.328 799.111 398.784 799.111 402.752C799.111 406.656 799.943 410.112 801.607 413.12C803.271 416.064 805.511 418.368 808.327 420.032C811.143 421.632 814.311 422.432 817.831 422.432ZM864.194 428V356.768H871.01V428H864.194ZM917.527 428.48C913.239 428.48 909.495 427.68 906.295 426.08C903.095 424.48 900.599 422.08 898.807 418.88C897.079 415.68 896.215 411.68 896.215 406.88V377.6H903.031V406.112C903.031 411.488 904.343 415.552 906.967 418.304C909.655 420.992 913.399 422.336 918.199 422.336C921.719 422.336 924.759 421.632 927.319 420.224C929.943 418.752 931.927 416.64 933.271 413.888C934.679 411.136 935.383 407.84 935.383 404V377.6H942.199V428H935.671V414.176L936.727 416.672C935.127 420.384 932.631 423.296 929.239 425.408C925.911 427.456 922.007 428.48 917.527 428.48ZM981.451 428.48C977.291 428.48 973.355 427.904 969.643 426.752C965.931 425.536 963.019 424.032 960.907 422.24L963.979 416.864C966.027 418.4 968.651 419.744 971.851 420.896C975.051 421.984 978.411 422.528 981.931 422.528C986.731 422.528 990.187 421.792 992.299 420.32C994.411 418.784 995.467 416.768 995.467 414.272C995.467 412.416 994.859 410.976 993.643 409.952C992.491 408.864 990.955 408.064 989.035 407.552C987.115 406.976 984.971 406.496 982.603 406.112C980.235 405.728 977.867 405.28 975.499 404.768C973.195 404.256 971.083 403.52 969.163 402.56C967.243 401.536 965.675 400.16 964.459 398.432C963.307 396.704 962.731 394.4 962.731 391.52C962.731 388.768 963.499 386.304 965.035 384.128C966.571 381.952 968.811 380.256 971.755 379.04C974.763 377.76 978.411 377.12 982.699 377.12C985.963 377.12 989.227 377.568 992.491 378.464C995.755 379.296 998.443 380.416 1000.56 381.824L997.579 387.296C995.339 385.76 992.939 384.672 990.379 384.032C987.819 383.328 985.259 382.976 982.699 382.976C978.155 382.976 974.795 383.776 972.619 385.376C970.507 386.912 969.451 388.896 969.451 391.328C969.451 393.248 970.027 394.752 971.179 395.84C972.395 396.928 973.963 397.792 975.883 398.432C977.867 399.008 980.011 399.488 982.315 399.872C984.683 400.256 987.019 400.736 989.323 401.312C991.691 401.824 993.835 402.56 995.755 403.52C997.739 404.416 999.307 405.728 1000.46 407.456C1001.68 409.12 1002.28 411.328 1002.28 414.08C1002.28 417.024 1001.45 419.584 999.787 421.76C998.187 423.872 995.819 425.536 992.683 426.752C989.611 427.904 985.867 428.48 981.451 428.48ZM1021.51 428V377.6H1028.33V428H1021.51ZM1024.97 366.464C1023.56 366.464 1022.37 365.984 1021.41 365.024C1020.45 364.064 1019.97 362.912 1019.97 361.568C1019.97 360.224 1020.45 359.104 1021.41 358.208C1022.37 357.248 1023.56 356.768 1024.97 356.768C1026.37 356.768 1027.56 357.216 1028.52 358.112C1029.48 359.008 1029.96 360.128 1029.96 361.472C1029.96 362.88 1029.48 364.064 1028.52 365.024C1027.62 365.984 1026.44 366.464 1024.97 366.464ZM1087.3 428V360.8H1133.38V366.944H1094.4V421.856H1134.82V428H1087.3ZM1093.63 396.896V390.848H1129.15V396.896H1093.63ZM1156.8 428V356.768H1163.61V428H1156.8ZM1210.7 428.48C1205.46 428.48 1200.85 427.392 1196.88 425.216C1192.91 422.976 1189.81 419.936 1187.57 416.096C1185.33 412.192 1184.21 407.744 1184.21 402.752C1184.21 397.76 1185.26 393.344 1187.38 389.504C1189.55 385.664 1192.5 382.656 1196.21 380.48C1199.98 378.24 1204.21 377.12 1208.88 377.12C1213.62 377.12 1217.81 378.208 1221.46 380.384C1225.17 382.496 1228.08 385.504 1230.19 389.408C1232.3 393.248 1233.36 397.696 1233.36 402.752C1233.36 403.072 1233.33 403.424 1233.26 403.808C1233.26 404.128 1233.26 404.48 1233.26 404.864H1189.39V399.776H1229.62L1226.93 401.792C1226.93 398.144 1226.13 394.912 1224.53 392.096C1222.99 389.216 1220.88 386.976 1218.19 385.376C1215.5 383.776 1212.4 382.976 1208.88 382.976C1205.42 382.976 1202.32 383.776 1199.57 385.376C1196.82 386.976 1194.67 389.216 1193.14 392.096C1191.6 394.976 1190.83 398.272 1190.83 401.984V403.04C1190.83 406.88 1191.66 410.272 1193.33 413.216C1195.06 416.096 1197.42 418.368 1200.43 420.032C1203.5 421.632 1206.99 422.432 1210.9 422.432C1213.97 422.432 1216.82 421.888 1219.44 420.8C1222.13 419.712 1224.43 418.048 1226.35 415.808L1230.19 420.224C1227.95 422.912 1225.14 424.96 1221.74 426.368C1218.42 427.776 1214.74 428.48 1210.7 428.48ZM1259.33 414.944L1259.52 406.208L1290.91 377.6H1299.27L1277.09 398.816L1273.25 402.08L1259.33 414.944ZM1253.95 428V356.768H1260.77V428H1253.95ZM1293.03 428L1272 401.792L1276.42 396.512L1301.38 428H1293.03ZM1333.98 428.48C1329.25 428.48 1325.6 427.2 1323.04 424.64C1320.48 422.08 1319.2 418.464 1319.2 413.792V366.464H1326.02V413.408C1326.02 416.352 1326.75 418.624 1328.22 420.224C1329.76 421.824 1331.94 422.624 1334.75 422.624C1337.76 422.624 1340.26 421.76 1342.24 420.032L1344.64 424.928C1343.3 426.144 1341.66 427.04 1339.74 427.616C1337.89 428.192 1335.97 428.48 1333.98 428.48ZM1310.18 383.264V377.6H1341.38V383.264H1310.18ZM1363.77 428V377.6H1370.3V391.328L1369.63 388.928C1371.03 385.088 1373.4 382.176 1376.73 380.192C1380.06 378.144 1384.19 377.12 1389.11 377.12V383.744C1388.86 383.744 1388.6 383.744 1388.35 383.744C1388.09 383.68 1387.83 383.648 1387.58 383.648C1382.27 383.648 1378.11 385.28 1375.1 388.544C1372.09 391.744 1370.59 396.32 1370.59 402.272V428H1363.77ZM1428.35 428.48C1423.48 428.48 1419.1 427.392 1415.19 425.216C1411.35 422.976 1408.31 419.936 1406.07 416.096C1403.83 412.192 1402.71 407.744 1402.71 402.752C1402.71 397.696 1403.83 393.248 1406.07 389.408C1408.31 385.568 1411.35 382.56 1415.19 380.384C1419.03 378.208 1423.42 377.12 1428.35 377.12C1433.34 377.12 1437.75 378.208 1441.59 380.384C1445.5 382.56 1448.54 385.568 1450.71 389.408C1452.95 393.248 1454.07 397.696 1454.07 402.752C1454.07 407.744 1452.95 412.192 1450.71 416.096C1448.54 419.936 1445.5 422.976 1441.59 425.216C1437.69 427.392 1433.27 428.48 1428.35 428.48ZM1428.35 422.432C1431.99 422.432 1435.23 421.632 1438.04 420.032C1440.86 418.368 1443.07 416.064 1444.67 413.12C1446.33 410.112 1447.16 406.656 1447.16 402.752C1447.16 398.784 1446.33 395.328 1444.67 392.384C1443.07 389.44 1440.86 387.168 1438.04 385.568C1435.23 383.904 1432.03 383.072 1428.44 383.072C1424.86 383.072 1421.66 383.904 1418.84 385.568C1416.03 387.168 1413.79 389.44 1412.12 392.384C1410.46 395.328 1409.63 398.784 1409.63 402.752C1409.63 406.656 1410.46 410.112 1412.12 413.12C1413.79 416.064 1416.03 418.368 1418.84 420.032C1421.66 421.632 1424.83 422.432 1428.35 422.432ZM1474.71 428V377.6H1481.24V391.424L1480.18 388.832C1481.78 385.184 1484.34 382.336 1487.86 380.288C1491.38 378.176 1495.57 377.12 1500.44 377.12C1504.53 377.12 1508.12 377.92 1511.19 379.52C1514.33 381.056 1516.76 383.424 1518.49 386.624C1520.28 389.824 1521.17 393.856 1521.17 398.72V428H1514.36V399.392C1514.36 394.08 1513.01 390.08 1510.33 387.392C1507.7 384.64 1503.99 383.264 1499.19 383.264C1495.61 383.264 1492.47 384 1489.78 385.472C1487.16 386.88 1485.11 388.96 1483.64 391.712C1482.23 394.4 1481.53 397.664 1481.53 401.504V428H1474.71ZM1546.3 428V377.6H1553.12V428H1546.3ZM1549.76 366.464C1548.35 366.464 1547.17 365.984 1546.21 365.024C1545.25 364.064 1544.77 362.912 1544.77 361.568C1544.77 360.224 1545.25 359.104 1546.21 358.208C1547.17 357.248 1548.35 356.768 1549.76 356.768C1551.17 356.768 1552.35 357.216 1553.31 358.112C1554.27 359.008 1554.75 360.128 1554.75 361.472C1554.75 362.88 1554.27 364.064 1553.31 365.024C1552.42 365.984 1551.23 366.464 1549.76 366.464ZM1584.18 414.944L1584.37 406.208L1615.77 377.6H1624.12L1601.94 398.816L1598.1 402.08L1584.18 414.944ZM1578.81 428V356.768H1585.62V428H1578.81ZM1617.88 428L1596.85 401.792L1601.27 396.512L1626.23 428H1617.88ZM1689.24 428V366.944H1665.63V360.8H1719.96V366.944H1696.35V428H1689.24ZM1752.75 428.48C1747.5 428.48 1742.89 427.392 1738.92 425.216C1734.96 422.976 1731.85 419.936 1729.61 416.096C1727.37 412.192 1726.25 407.744 1726.25 402.752C1726.25 397.76 1727.31 393.344 1729.42 389.504C1731.6 385.664 1734.54 382.656 1738.25 380.48C1742.03 378.24 1746.25 377.12 1750.92 377.12C1755.66 377.12 1759.85 378.208 1763.5 380.384C1767.21 382.496 1770.12 385.504 1772.24 389.408C1774.35 393.248 1775.4 397.696 1775.4 402.752C1775.4 403.072 1775.37 403.424 1775.31 403.808C1775.31 404.128 1775.31 404.48 1775.31 404.864H1731.44V399.776H1771.66L1768.97 401.792C1768.97 398.144 1768.17 394.912 1766.57 392.096C1765.04 389.216 1762.92 386.976 1760.24 385.376C1757.55 383.776 1754.44 382.976 1750.92 382.976C1747.47 382.976 1744.36 383.776 1741.61 385.376C1738.86 386.976 1736.72 389.216 1735.18 392.096C1733.64 394.976 1732.88 398.272 1732.88 401.984V403.04C1732.88 406.88 1733.71 410.272 1735.37 413.216C1737.1 416.096 1739.47 418.368 1742.48 420.032C1745.55 421.632 1749.04 422.432 1752.94 422.432C1756.01 422.432 1758.86 421.888 1761.48 420.8C1764.17 419.712 1766.48 418.048 1768.4 415.808L1772.24 420.224C1770 422.912 1767.18 424.96 1763.79 426.368C1760.46 427.776 1756.78 428.48 1752.75 428.48ZM1796 428V377.6H1802.53V391.328L1801.85 388.928C1803.26 385.088 1805.63 382.176 1808.96 380.192C1812.29 378.144 1816.41 377.12 1821.34 377.12V383.744C1821.09 383.744 1820.83 383.744 1820.57 383.744C1820.32 383.68 1820.06 383.648 1819.81 383.648C1814.49 383.648 1810.33 385.28 1807.33 388.544C1804.32 391.744 1802.81 396.32 1802.81 402.272V428H1796ZM1866.51 428.48C1862.16 428.48 1858.23 427.488 1854.71 425.504C1851.19 423.456 1848.37 420.544 1846.26 416.768C1844.21 412.928 1843.19 408.256 1843.19 402.752C1843.19 397.248 1844.21 392.608 1846.26 388.832C1848.31 384.992 1851.09 382.08 1854.61 380.096C1858.13 378.112 1862.1 377.12 1866.51 377.12C1871.31 377.12 1875.6 378.208 1879.38 380.384C1883.22 382.496 1886.23 385.504 1888.4 389.408C1890.58 393.248 1891.67 397.696 1891.67 402.752C1891.67 407.872 1890.58 412.352 1888.4 416.192C1886.23 420.032 1883.22 423.04 1879.38 425.216C1875.6 427.392 1871.31 428.48 1866.51 428.48ZM1840.5 446.624V377.6H1847.03V392.768L1846.35 402.848L1847.31 413.024V446.624H1840.5ZM1866.03 422.432C1869.62 422.432 1872.82 421.632 1875.63 420.032C1878.45 418.368 1880.69 416.064 1882.35 413.12C1884.02 410.112 1884.85 406.656 1884.85 402.752C1884.85 398.848 1884.02 395.424 1882.35 392.48C1880.69 389.536 1878.45 387.232 1875.63 385.568C1872.82 383.904 1869.62 383.072 1866.03 383.072C1862.45 383.072 1859.22 383.904 1856.34 385.568C1853.52 387.232 1851.28 389.536 1849.62 392.48C1848.02 395.424 1847.22 398.848 1847.22 402.752C1847.22 406.656 1848.02 410.112 1849.62 413.12C1851.28 416.064 1853.52 418.368 1856.34 420.032C1859.22 421.632 1862.45 422.432 1866.03 422.432ZM1933.69 428.48C1928.44 428.48 1923.83 427.392 1919.87 425.216C1915.9 422.976 1912.79 419.936 1910.55 416.096C1908.31 412.192 1907.19 407.744 1907.19 402.752C1907.19 397.76 1908.25 393.344 1910.36 389.504C1912.54 385.664 1915.48 382.656 1919.19 380.48C1922.97 378.24 1927.19 377.12 1931.87 377.12C1936.6 377.12 1940.79 378.208 1944.44 380.384C1948.15 382.496 1951.07 385.504 1953.18 389.408C1955.29 393.248 1956.35 397.696 1956.35 402.752C1956.35 403.072 1956.31 403.424 1956.25 403.808C1956.25 404.128 1956.25 404.48 1956.25 404.864H1912.38V399.776H1952.6L1949.91 401.792C1949.91 398.144 1949.11 394.912 1947.51 392.096C1945.98 389.216 1943.87 386.976 1941.18 385.376C1938.49 383.776 1935.39 382.976 1931.87 382.976C1928.41 382.976 1925.31 383.776 1922.55 385.376C1919.8 386.976 1917.66 389.216 1916.12 392.096C1914.59 394.976 1913.82 398.272 1913.82 401.984V403.04C1913.82 406.88 1914.65 410.272 1916.31 413.216C1918.04 416.096 1920.41 418.368 1923.42 420.032C1926.49 421.632 1929.98 422.432 1933.88 422.432C1936.95 422.432 1939.8 421.888 1942.43 420.8C1945.11 419.712 1947.42 418.048 1949.34 415.808L1953.18 420.224C1950.94 422.912 1948.12 424.96 1944.73 426.368C1941.4 427.776 1937.72 428.48 1933.69 428.48ZM1976.94 428V377.6H1983.47V391.328L1982.79 388.928C1984.2 385.088 1986.57 382.176 1989.9 380.192C1993.23 378.144 1997.35 377.12 2002.28 377.12V383.744C2002.03 383.744 2001.77 383.744 2001.51 383.744C2001.26 383.68 2001 383.648 2000.75 383.648C1995.43 383.648 1991.27 385.28 1988.27 388.544C1985.26 391.744 1983.75 396.32 1983.75 402.272V428H1976.94ZM2041.9 428.48C2036.91 428.48 2032.43 427.392 2028.46 425.216C2024.56 422.976 2021.48 419.936 2019.24 416.096C2017 412.192 2015.88 407.744 2015.88 402.752C2015.88 397.696 2017 393.248 2019.24 389.408C2021.48 385.568 2024.56 382.56 2028.46 380.384C2032.43 378.208 2036.91 377.12 2041.9 377.12C2046.19 377.12 2050.06 377.952 2053.52 379.616C2056.97 381.28 2059.69 383.776 2061.68 387.104L2056.59 390.56C2054.86 388 2052.72 386.112 2050.16 384.896C2047.6 383.68 2044.81 383.072 2041.8 383.072C2038.22 383.072 2034.99 383.904 2032.11 385.568C2029.23 387.168 2026.96 389.44 2025.29 392.384C2023.63 395.328 2022.8 398.784 2022.8 402.752C2022.8 406.72 2023.63 410.176 2025.29 413.12C2026.96 416.064 2029.23 418.368 2032.11 420.032C2034.99 421.632 2038.22 422.432 2041.8 422.432C2044.81 422.432 2047.6 421.824 2050.16 420.608C2052.72 419.392 2054.86 417.536 2056.59 415.04L2061.68 418.496C2059.69 421.76 2056.97 424.256 2053.52 425.984C2050.06 427.648 2046.19 428.48 2041.9 428.48ZM2113.37 428V416.864L2113.08 415.04V396.416C2113.08 392.128 2111.87 388.832 2109.43 386.528C2107.07 384.224 2103.51 383.072 2098.78 383.072C2095.51 383.072 2092.41 383.616 2089.47 384.704C2086.52 385.792 2084.03 387.232 2081.98 389.024L2078.91 383.936C2081.47 381.76 2084.54 380.096 2088.12 378.944C2091.71 377.728 2095.48 377.12 2099.45 377.12C2105.98 377.12 2111 378.752 2114.52 382.016C2118.11 385.216 2119.9 390.112 2119.9 396.704V428H2113.37ZM2095.99 428.48C2092.22 428.48 2088.92 427.872 2086.11 426.656C2083.35 425.376 2081.24 423.648 2079.77 421.472C2078.3 419.232 2077.56 416.672 2077.56 413.792C2077.56 411.168 2078.17 408.8 2079.39 406.688C2080.67 404.512 2082.71 402.784 2085.53 401.504C2088.41 400.16 2092.25 399.488 2097.05 399.488H2114.43V404.576H2097.24C2092.38 404.576 2088.99 405.44 2087.07 407.168C2085.21 408.896 2084.28 411.04 2084.28 413.6C2084.28 416.48 2085.4 418.784 2087.64 420.512C2089.88 422.24 2093.02 423.104 2097.05 423.104C2100.89 423.104 2104.19 422.24 2106.94 420.512C2109.75 418.72 2111.8 416.16 2113.08 412.832L2114.62 417.536C2113.34 420.864 2111.1 423.52 2107.9 425.504C2104.76 427.488 2100.79 428.48 2095.99 428.48ZM2143.73 447.104C2141.36 447.104 2139.09 446.72 2136.92 445.952C2134.8 445.184 2132.98 444.032 2131.44 442.496L2134.61 437.408C2135.89 438.624 2137.27 439.552 2138.74 440.192C2140.28 440.896 2141.97 441.248 2143.83 441.248C2146.07 441.248 2147.99 440.608 2149.59 439.328C2151.25 438.112 2152.82 435.936 2154.29 432.8L2157.56 425.408L2158.32 424.352L2179.06 377.6H2185.78L2160.53 434.048C2159.12 437.312 2157.56 439.904 2155.83 441.824C2154.16 443.744 2152.34 445.088 2150.36 445.856C2148.37 446.688 2146.16 447.104 2143.73 447.104ZM2157.17 429.44L2133.94 377.6H2141.04L2161.59 423.872L2157.17 429.44ZM2231.81 428V416.864L2231.52 415.04V396.416C2231.52 392.128 2230.31 388.832 2227.87 386.528C2225.51 384.224 2221.95 383.072 2217.22 383.072C2213.95 383.072 2210.85 383.616 2207.91 384.704C2204.96 385.792 2202.47 387.232 2200.42 389.024L2197.35 383.936C2199.91 381.76 2202.98 380.096 2206.56 378.944C2210.15 377.728 2213.92 377.12 2217.89 377.12C2224.42 377.12 2229.44 378.752 2232.96 382.016C2236.55 385.216 2238.34 390.112 2238.34 396.704V428H2231.81ZM2214.43 428.48C2210.66 428.48 2207.36 427.872 2204.55 426.656C2201.79 425.376 2199.68 423.648 2198.21 421.472C2196.74 419.232 2196 416.672 2196 413.792C2196 411.168 2196.61 408.8 2197.83 406.688C2199.11 404.512 2201.15 402.784 2203.97 401.504C2206.85 400.16 2210.69 399.488 2215.49 399.488H2232.87V404.576H2215.68C2210.82 404.576 2207.43 405.44 2205.51 407.168C2203.65 408.896 2202.72 411.04 2202.72 413.6C2202.72 416.48 2203.84 418.784 2206.08 420.512C2208.32 422.24 2211.46 423.104 2215.49 423.104C2219.33 423.104 2222.63 422.24 2225.38 420.512C2228.19 418.72 2230.24 416.16 2231.52 412.832L2233.06 417.536C2231.78 420.864 2229.54 423.52 2226.34 425.504C2223.2 427.488 2219.23 428.48 2214.43 428.48Z" fill="#363636"/>
</svg>
